<?xml version="1.0" encoding="utf-8"?>
<!-- Generator: Adobe Illustrator 24.0.1, SVG Export Plug-In . SVG Version: 6.00 Build 0)  -->
<svg version="1.1" id="Laag_1" xmlns="http://www.w3.org/2000/svg" xmlns:xlink="http://www.w3.org/1999/xlink" x="0px" y="0px"
	 viewBox="0 0 1984.25 1417.32" style="enable-background:new 0 0 1984.25 1417.32;" xml:space="preserve">
<style type="text/css">
	.st0{fill:#EEEEEE;}
	.st1{fill:none;stroke:#EEEEEE;stroke-width:11.3386;stroke-miterlimit:10;}
</style>
<g>
	<path class="st0" d="M458.77,681.6c-40.46,0-74.73-13.67-102.79-41.01c-28.06-27.34-42.09-60.82-42.09-100.44
		c0-39.62,14.03-73.13,42.09-100.53c28.06-27.4,62.32-41.1,102.79-41.1c40.58,0,74.88,13.7,102.88,41.1c28,27.4,42,60.91,42,100.53
		c0,39.62-14,73.1-42,100.44C533.65,667.93,499.36,681.6,458.77,681.6z M458.77,657.03c32.88,0,60.61-11.29,83.19-33.87
		c22.58-22.58,33.87-50.25,33.87-83.01c0-32.76-11.29-60.45-33.87-83.1c-22.58-22.64-50.31-33.96-83.19-33.96
		c-32.76,0-60.46,11.32-83.1,33.96c-22.64,22.64-33.96,50.34-33.96,83.1c0,32.76,11.32,60.43,33.96,83.01
		C398.32,645.74,426.02,657.03,458.77,657.03z"/>
	<path class="st0" d="M652.43,676.9V403.22h13.73h13.73v248.93h88.7l24.39,24.75H652.43z"/>
	<path class="st0" d="M842.83,676.9V403.22h13.73h13.73V676.9h-13.73H842.83z"/>
	<path class="st0" d="M907.5,403.22h14.81h14.99l97.73,241.34l97.37-241.34h14.27h14.45l-112.9,273.68h-13.73h-13.91L907.5,403.22z"
		/>
	<path class="st0" d="M1203.76,676.9V403.22h13.73h13.73V676.9h-13.73H1203.76z"/>
	<path class="st0" d="M1291.37,676.9V403.22h149.94l-24.39,24.75h-98.09v98.45h68.65v24.75h-68.65v100.98h98.09l24.39,24.75H1291.37
		z"/>
	<path class="st0" d="M1519.71,575.92V676.9h-13.73h-13.73V403.22h13.73h69.73c32.03,0,57.08,7.68,75.15,23.03
		c18.06,15.35,27.1,36.7,27.1,64.04c0,27.22-9.03,48.48-27.1,63.77c-13.97,11.68-32.1,18.97-54.38,21.86l78.22,100.98h-17.34h-17.34
		l-76.05-100.98H1519.71z M1519.89,552.44h55.82c23.36,0,41.61-5.48,54.74-16.44c13.12-10.96,19.69-26.19,19.69-45.7
		c0-19.63-6.57-34.96-19.69-45.97c-13.13-11.02-31.37-16.53-54.74-16.53h-56L1519.89,552.44z"/>
</g>
<g>
	<path class="st0" d="M1158.33,906.34V767.1h6.62h6.62v49.44l2.02-2.48c7.23-8.94,17.25-13.42,30.05-13.42
		c14.21,0,25.3,4.38,33.27,13.14c7.96,8.76,11.95,20.95,11.95,36.58v55.97h-6.62h-6.62V850c0-11.7-2.82-20.86-8.46-27.48
		c-5.64-6.62-13.48-9.92-23.53-9.92c-10.29,0-18.21,3.35-23.76,10.06c-5.55,6.71-8.32,16.28-8.32,28.72v54.96h-6.62H1158.33z"/>
	<path class="st0" d="M1322.02,908.73c-15.01,0-27.72-5.21-38.14-15.62c-10.42-10.42-15.62-23.16-15.62-38.23
		c0-15.13,5.21-27.91,15.62-38.32c10.42-10.42,23.13-15.62,38.14-15.62c15.13,0,27.89,5.21,38.28,15.62
		c10.38,10.42,15.58,23.19,15.58,38.32c0,15.07-5.19,27.82-15.58,38.23C1349.91,903.52,1337.15,908.73,1322.02,908.73z
		 M1322.02,897.05c11.4,0,21.01-4.07,28.86-12.22c7.84-8.15,11.76-18.13,11.76-29.96c0-11.82-3.92-21.83-11.76-30.01
		c-7.84-8.18-17.46-12.27-28.86-12.27c-11.34,0-20.92,4.09-28.77,12.27s-11.76,18.18-11.76,30.01c0,11.83,3.92,21.81,11.76,29.96
		C1301.09,892.98,1310.68,897.05,1322.02,897.05z"/>
	<path class="st0" d="M1398.66,906.34V803.31h6.53h6.62v10.57l1.1-1.29c6.56-7.96,15.65-11.95,27.3-11.95
		c12.87,0,22.91,3.98,30.14,11.95c2.08,2.33,3.89,4.9,5.42,7.72c1.35-2.94,2.97-5.51,4.87-7.72c6.68-7.96,15.96-11.95,27.85-11.95
		c13.17,0,23.45,4.08,30.83,12.22c7.38,8.15,11.07,19.45,11.07,33.91v59.55h-6.62h-6.62v-61.02c0-10.23-2.47-18.24-7.4-24.03
		c-4.93-5.79-11.78-8.68-20.54-8.68c-8.95,0-15.85,2.89-20.72,8.68s-7.31,14.02-7.31,24.68v60.38h-6.62h-6.62V845.4
		c0-10.29-2.48-18.33-7.44-24.12s-11.83-8.68-20.59-8.68c-8.95,0-15.85,2.89-20.72,8.68c-4.87,5.79-7.31,14.02-7.31,24.68v60.38
		h-6.62H1398.66z"/>
	<path class="st0" d="M1663.62,861.76l12.32,0.18c-0.31,2.94-0.89,5.88-1.75,8.82c-3.12,10.91-9.13,19.94-18.01,27.11
		c-11.64,9.37-24.78,13.26-39.43,11.67c-14.64-1.59-26.68-8.27-36.12-20.04c-9.5-11.82-13.46-25.04-11.9-39.66
		c1.56-14.61,8.19-26.61,19.9-35.98c11.7-9.43,24.86-13.34,39.47-11.72c14.61,1.62,26.67,8.32,36.17,20.08
		c1.04,1.29,1.99,2.63,2.85,4.04l-72.79,58.63c6.74,6.92,14.95,11,24.63,12.22c11.27,1.41,21.35-1.47,30.24-8.64
		c6.37-5.08,10.66-11.15,12.87-18.2C1662.92,867.55,1663.44,864.7,1663.62,861.76z M1649.2,825.46
		c-6.56-6.13-14.31-9.77-23.25-10.94c-11.21-1.47-21.23,1.35-30.05,8.46c-8.76,7.05-13.63,16.24-14.61,27.57
		c-0.67,8.82,1.2,17.19,5.61,25.09L1649.2,825.46z"/>
</g>
<path class="st1" d="M310.98,1040.09h1366.85H310.98z"/>
</svg>
