<?xml version="1.0" encoding="utf-8"?>
<!-- Generator: Adobe Illustrator 24.0.1, SVG Export Plug-In . SVG Version: 6.00 Build 0)  -->
<svg version="1.1" id="Laag_1" xmlns="http://www.w3.org/2000/svg" xmlns:xlink="http://www.w3.org/1999/xlink" x="0px" y="0px"
	 viewBox="0 0 1984.25 1417.32" style="enable-background:new 0 0 500 500;" xml:space="preserve">
<style type="text/css">
	.st0{fill:none;stroke:#000000;stroke-width:11.3386;stroke-miterlimit:10;}
</style>
<g>
	<path d="M458.77,681.6c-40.46,0-74.73-13.67-102.79-41.01c-28.06-27.34-42.09-60.82-42.09-100.44c0-39.62,14.03-73.13,42.09-100.53
		c28.06-27.4,62.32-41.1,102.79-41.1c40.58,0,74.88,13.7,102.88,41.1c28,27.4,42,60.91,42,100.53c0,39.62-14,73.1-42,100.44
		C533.65,667.93,499.36,681.6,458.77,681.6z M458.77,657.03c32.88,0,60.61-11.29,83.19-33.87c22.58-22.58,33.87-50.25,33.87-83.01
		c0-32.76-11.29-60.45-33.87-83.1c-22.58-22.64-50.31-33.96-83.19-33.96c-32.76,0-60.46,11.32-83.1,33.96
		c-22.64,22.64-33.96,50.34-33.96,83.1c0,32.76,11.32,60.43,33.96,83.01C398.32,645.74,426.02,657.03,458.77,657.03z"/>
	
</g>

</svg>
